<mxfile host="app.diagrams.net" modified="2021-08-26T01:25:19.203Z" agent="5.0 (Windows NT 10.0; WOW64) AppleWebKit/537.36 (KHTML, like Gecko) Chrome/86.0.4240.198 Safari/537.36" etag="25P8thX1TlItk9-YtiTu" version="14.9.9" type="github">
  <diagram id="B68jBo1_emeU9YWbWaXk" name="Page-1">
    <mxGraphModel dx="942" dy="507" grid="1" gridSize="10" guides="1" tooltips="1" connect="1" arrows="1" fold="1" page="1" pageScale="1" pageWidth="827" pageHeight="1169" math="0" shadow="0">
      <root>
        <mxCell id="0" />
        <mxCell id="1" parent="0" />
        <mxCell id="CX94YFdSWidOFyM2pi-x-3" value="&lt;font style=&quot;font-size: 14px&quot;&gt;基础&lt;br&gt;平台&lt;/font&gt;" style="rounded=0;whiteSpace=wrap;html=1;fillColor=#f5f5f5;strokeColor=#666666;fontColor=#333333;" parent="1" vertex="1">
          <mxGeometry x="160" y="100" width="60" height="200" as="geometry" />
        </mxCell>
        <mxCell id="CX94YFdSWidOFyM2pi-x-5" value="&lt;span style=&quot;font-size: 14px&quot;&gt;积分&lt;br&gt;管理&lt;br&gt;系统&lt;/span&gt;" style="rounded=0;whiteSpace=wrap;html=1;fillColor=#f5f5f5;strokeColor=#666666;fontColor=#333333;" parent="1" vertex="1">
          <mxGeometry x="320" y="100" width="60" height="200" as="geometry" />
        </mxCell>
        <mxCell id="CX94YFdSWidOFyM2pi-x-6" value="" style="shape=flexArrow;endArrow=classic;html=1;width=15;endSize=4;fillColor=#fff2cc;strokeColor=#d6b656;endWidth=16;" parent="1" edge="1">
          <mxGeometry width="50" height="50" relative="1" as="geometry">
            <mxPoint x="240" y="144.5" as="sourcePoint" />
            <mxPoint x="300" y="144.5" as="targetPoint" />
          </mxGeometry>
        </mxCell>
        <mxCell id="CX94YFdSWidOFyM2pi-x-7" value="&lt;span style=&quot;font-size: 11px ; background-color: rgb(255 , 255 , 255)&quot;&gt;用户认证信息&lt;/span&gt;" style="text;html=1;strokeColor=none;fillColor=none;align=center;verticalAlign=middle;whiteSpace=wrap;rounded=0;" parent="1" vertex="1">
          <mxGeometry x="230" y="110" width="80" height="20" as="geometry" />
        </mxCell>
        <mxCell id="CX94YFdSWidOFyM2pi-x-8" value="&lt;span style=&quot;font-size: 11px ; background-color: rgb(255 , 255 , 255)&quot;&gt;基础数据&lt;/span&gt;" style="text;html=1;strokeColor=none;fillColor=none;align=center;verticalAlign=middle;whiteSpace=wrap;rounded=0;" parent="1" vertex="1">
          <mxGeometry x="230" y="160" width="80" height="20" as="geometry" />
        </mxCell>
        <mxCell id="cvz1AhEdZuIgaesEsxTg-2" value="" style="shape=flexArrow;endArrow=classic;html=1;width=15;endSize=4;fillColor=#fff2cc;strokeColor=#d6b656;endWidth=16;" edge="1" parent="1">
          <mxGeometry width="50" height="50" relative="1" as="geometry">
            <mxPoint x="300" y="260" as="sourcePoint" />
            <mxPoint x="240" y="260" as="targetPoint" />
          </mxGeometry>
        </mxCell>
        <mxCell id="cvz1AhEdZuIgaesEsxTg-3" value="个人积分荣誉" style="text;html=1;strokeColor=none;fillColor=none;align=center;verticalAlign=middle;whiteSpace=wrap;rounded=0;" vertex="1" parent="1">
          <mxGeometry x="230" y="230" width="80" height="20" as="geometry" />
        </mxCell>
      </root>
    </mxGraphModel>
  </diagram>
</mxfile>
